<mxfile host="app.diagrams.net" agent="Mozilla/5.0 (X11; Linux x86_64; rv:135.0) Gecko/20100101 Firefox/135.0" version="26.2.8">
  <diagram name="Page-1" id="COLEjmH5nuIkxOmSaLwQ">
    <mxGraphModel>
      <root>
        <mxCell id="0" />
        <mxCell id="1" parent="0" />
        <mxCell id="2" value="Infrastructure" style="whiteSpace=wrap;strokeWidth=2;" vertex="1" parent="1">
          <mxGeometry x="8" y="8" width="951" height="124" as="geometry" />
        </mxCell>
        <mxCell id="3" value="Monitoring &amp; Logging" style="whiteSpace=wrap;strokeWidth=2;" vertex="1" parent="1">
          <mxGeometry x="1124" y="8" width="541" height="147" as="geometry" />
        </mxCell>
        <mxCell id="4" value="Backend Services" style="whiteSpace=wrap;strokeWidth=2;" vertex="1" parent="1">
          <mxGeometry x="689" y="175" width="731" height="752" as="geometry" />
        </mxCell>
        <mxCell id="5" value="User Interface" style="whiteSpace=wrap;strokeWidth=2;" vertex="1" parent="1">
          <mxGeometry x="8" y="166" width="506" height="609" as="geometry" />
        </mxCell>
        <mxCell id="6" value="Web Application" style="whiteSpace=wrap;strokeWidth=2;" vertex="1" parent="1">
          <mxGeometry x="33" y="301" width="175" height="54" as="geometry" />
        </mxCell>
        <mxCell id="7" value="API Gateway" style="whiteSpace=wrap;strokeWidth=2;" vertex="1" parent="1">
          <mxGeometry x="335" y="363" width="153" height="54" as="geometry" />
        </mxCell>
        <mxCell id="8" value="Mobile App" style="whiteSpace=wrap;strokeWidth=2;" vertex="1" parent="1">
          <mxGeometry x="51" y="591" width="140" height="54" as="geometry" />
        </mxCell>
        <mxCell id="9" value="Authentication Service" style="whiteSpace=wrap;strokeWidth=2;" vertex="1" parent="1">
          <mxGeometry x="714" y="210" width="219" height="54" as="geometry" />
        </mxCell>
        <mxCell id="10" value="User Service" style="whiteSpace=wrap;strokeWidth=2;" vertex="1" parent="1">
          <mxGeometry x="748" y="363" width="152" height="54" as="geometry" />
        </mxCell>
        <mxCell id="11" value="Order Service" style="whiteSpace=wrap;strokeWidth=2;" vertex="1" parent="1">
          <mxGeometry x="745" y="560" width="159" height="54" as="geometry" />
        </mxCell>
        <mxCell id="12" value="Product Service" style="whiteSpace=wrap;strokeWidth=2;" vertex="1" parent="1">
          <mxGeometry x="738" y="676" width="173" height="54" as="geometry" />
        </mxCell>
        <mxCell id="13" value="Auth Database" style="shape=cylinder3;boundedLbl=1;backgroundOutline=1;size=10;strokeWidth=2;whiteSpace=wrap;" vertex="1" parent="1">
          <mxGeometry x="1212" y="226" width="121" height="76" as="geometry" />
        </mxCell>
        <mxCell id="14" value="User Database" style="shape=cylinder3;boundedLbl=1;backgroundOutline=1;size=10;strokeWidth=2;whiteSpace=wrap;" vertex="1" parent="1">
          <mxGeometry x="1211" y="352" width="122" height="76" as="geometry" />
        </mxCell>
        <mxCell id="15" value="Order Database" style="shape=cylinder3;boundedLbl=1;backgroundOutline=1;size=10;strokeWidth=2;whiteSpace=wrap;" vertex="1" parent="1">
          <mxGeometry x="1208" y="478" width="129" height="77" as="geometry" />
        </mxCell>
        <mxCell id="16" value="Product Database" style="shape=cylinder3;boundedLbl=1;backgroundOutline=1;size=10;strokeWidth=2;whiteSpace=wrap;" vertex="1" parent="1">
          <mxGeometry x="1201" y="605" width="143" height="79" as="geometry" />
        </mxCell>
        <mxCell id="17" value="External Payment Service" style="whiteSpace=wrap;strokeWidth=2;" vertex="1" parent="1">
          <mxGeometry x="1150" y="734" width="244" height="54" as="geometry" />
        </mxCell>
        <mxCell id="18" value="External Inventory Service" style="whiteSpace=wrap;strokeWidth=2;" vertex="1" parent="1">
          <mxGeometry x="1149" y="838" width="247" height="54" as="geometry" />
        </mxCell>
        <mxCell id="19" value="Logging Service" style="shape=cylinder3;boundedLbl=1;backgroundOutline=1;size=10;strokeWidth=2;whiteSpace=wrap;" vertex="1" parent="1">
          <mxGeometry x="1207" y="43" width="130" height="77" as="geometry" />
        </mxCell>
        <mxCell id="20" value="Metrics Service" style="whiteSpace=wrap;strokeWidth=2;" vertex="1" parent="1">
          <mxGeometry x="1471" y="55" width="169" height="54" as="geometry" />
        </mxCell>
        <mxCell id="21" value="Load Balancer" style="whiteSpace=wrap;strokeWidth=2;" vertex="1" parent="1">
          <mxGeometry x="39" y="43" width="163" height="54" as="geometry" />
        </mxCell>
        <mxCell id="22" value="Cache Service" style="whiteSpace=wrap;strokeWidth=2;" vertex="1" parent="1">
          <mxGeometry x="742" y="43" width="164" height="54" as="geometry" />
        </mxCell>
        <mxCell id="23" value="REST API" style="curved=1;startArrow=none;endArrow=block;exitX=1;exitY=0.5;entryX=0.1;entryY=0;" edge="1" parent="1" source="6" target="7">
          <mxGeometry relative="1" as="geometry">
            <Array as="points">
              <mxPoint x="272" y="328" />
            </Array>
          </mxGeometry>
        </mxCell>
        <mxCell id="24" value="REST API" style="curved=1;startArrow=none;endArrow=block;exitX=1;exitY=0.5;entryX=0.39;entryY=1;" edge="1" parent="1" source="8" target="7">
          <mxGeometry relative="1" as="geometry">
            <Array as="points">
              <mxPoint x="272" y="618" />
            </Array>
          </mxGeometry>
        </mxCell>
        <mxCell id="25" value="Microservice Call" style="curved=1;startArrow=none;endArrow=block;exitX=0.62;exitY=0;entryX=0;entryY=0.5;" edge="1" parent="1" source="7" target="9">
          <mxGeometry relative="1" as="geometry">
            <Array as="points">
              <mxPoint x="514" y="237" />
            </Array>
          </mxGeometry>
        </mxCell>
        <mxCell id="26" value="Microservice Call" style="curved=1;startArrow=none;endArrow=block;exitX=1;exitY=0.5;entryX=0;entryY=0.5;" edge="1" parent="1" source="7" target="10">
          <mxGeometry relative="1" as="geometry">
            <Array as="points" />
          </mxGeometry>
        </mxCell>
        <mxCell id="27" value="Microservice Call" style="curved=1;startArrow=none;endArrow=block;exitX=0.59;exitY=1;entryX=0;entryY=0.49;" edge="1" parent="1" source="7" target="11">
          <mxGeometry relative="1" as="geometry">
            <Array as="points">
              <mxPoint x="514" y="587" />
            </Array>
          </mxGeometry>
        </mxCell>
        <mxCell id="28" value="Microservice Call" style="curved=1;startArrow=none;endArrow=block;exitX=0.56;exitY=1;entryX=0;entryY=0.5;" edge="1" parent="1" source="7" target="12">
          <mxGeometry relative="1" as="geometry">
            <Array as="points">
              <mxPoint x="514" y="703" />
            </Array>
          </mxGeometry>
        </mxCell>
        <mxCell id="29" value="Read/Write" style="curved=1;startArrow=none;endArrow=block;exitX=1;exitY=0.91;entryX=0;entryY=0.5;" edge="1" parent="1" source="9" target="13">
          <mxGeometry relative="1" as="geometry">
            <Array as="points">
              <mxPoint x="959" y="264" />
            </Array>
          </mxGeometry>
        </mxCell>
        <mxCell id="30" value="Read/Write" style="curved=1;startArrow=none;endArrow=block;exitX=1;exitY=0.5;entryX=0;entryY=0.5;" edge="1" parent="1" source="10" target="14">
          <mxGeometry relative="1" as="geometry">
            <Array as="points" />
          </mxGeometry>
        </mxCell>
        <mxCell id="31" value="Read/Write" style="curved=1;startArrow=none;endArrow=block;exitX=0.82;exitY=-0.01;entryX=0;entryY=0.5;" edge="1" parent="1" source="11" target="15">
          <mxGeometry relative="1" as="geometry">
            <Array as="points">
              <mxPoint x="959" y="516" />
            </Array>
          </mxGeometry>
        </mxCell>
        <mxCell id="32" value="Read/Write" style="curved=1;startArrow=none;endArrow=block;exitX=0.86;exitY=0;entryX=0;entryY=0.5;" edge="1" parent="1" source="12" target="16">
          <mxGeometry relative="1" as="geometry">
            <Array as="points">
              <mxPoint x="959" y="644" />
            </Array>
          </mxGeometry>
        </mxCell>
        <mxCell id="33" value="Communication" style="curved=1;startArrow=none;endArrow=block;exitX=0.63;exitY=0.99;entryX=0;entryY=0.5;" edge="1" parent="1" source="11" target="17">
          <mxGeometry relative="1" as="geometry">
            <Array as="points">
              <mxPoint x="959" y="761" />
            </Array>
          </mxGeometry>
        </mxCell>
        <mxCell id="34" value="Retrieve" style="curved=1;startArrow=none;endArrow=block;exitX=0.63;exitY=1;entryX=0;entryY=0.5;" edge="1" parent="1" source="12" target="18">
          <mxGeometry relative="1" as="geometry">
            <Array as="points">
              <mxPoint x="959" y="865" />
            </Array>
          </mxGeometry>
        </mxCell>
        <mxCell id="35" value="Log" style="curved=1;startArrow=none;endArrow=block;exitX=1;exitY=0.27;entryX=0.19;entryY=1;" edge="1" parent="1" source="9" target="19">
          <mxGeometry relative="1" as="geometry">
            <Array as="points">
              <mxPoint x="959" y="222" />
              <mxPoint x="1124" y="222" />
            </Array>
          </mxGeometry>
        </mxCell>
        <mxCell id="36" value="" style="curved=1;startArrow=none;endArrow=block;exitX=1;exitY=0.5;entryX=0;entryY=0.49;" edge="1" parent="1" source="19" target="20">
          <mxGeometry relative="1" as="geometry">
            <Array as="points" />
          </mxGeometry>
        </mxCell>
        <mxCell id="37" value="" style="curved=1;startArrow=none;endArrow=block;exitX=1;exitY=0.5;entryX=0.43;entryY=0;" edge="1" parent="1" source="21" target="7">
          <mxGeometry relative="1" as="geometry">
            <Array as="points">
              <mxPoint x="272" y="70" />
            </Array>
          </mxGeometry>
        </mxCell>
        <mxCell id="38" value="Removes" style="curved=1;startArrow=none;endArrow=block;exitX=0.61;exitY=0;entryX=0;entryY=0.5;" edge="1" parent="1" source="7" target="22">
          <mxGeometry relative="1" as="geometry">
            <Array as="points">
              <mxPoint x="514" y="217" />
              <mxPoint x="601" y="70" />
            </Array>
          </mxGeometry>
        </mxCell>
      </root>
    </mxGraphModel>
  </diagram>
</mxfile>
